<?xml version="1.0" encoding="utf-8"?>
<!-- Generator: Adobe Illustrator 16.0.0, SVG Export Plug-In . SVG Version: 6.00 Build 0)  -->
<!DOCTYPE svg PUBLIC "-//W3C//DTD SVG 1.1//EN" "http://www.w3.org/Graphics/SVG/1.1/DTD/svg11.dtd">
<svg version="1.1" id="圖層_1" xmlns="http://www.w3.org/2000/svg" xmlns:xlink="http://www.w3.org/1999/xlink" x="0px" y="0px"
	 width="55px" height="55px" viewBox="0 0 55 55" enable-background="new 0 0 55 55" xml:space="preserve">
<g>
	<path fill="#FFFFFF" d="M25.5,43.6h4.8V39.2c2.601-0.2,4.601-1,6.101-2.4C38,35.4,38.8,33.7,38.8,31.7c0-1.601-0.7-3-2-4.1
		c-1.3-1.2-3.2-2-5.8-2.6c-0.7-0.1-1.7-0.3-3.1-0.6c-2.3-0.3-3.8-0.8-4.5-1.3c-0.3-0.2-0.6-0.6-0.8-0.9c-0.1-0.3-0.2-0.7-0.2-1
		c0-1,0.5-2,1.4-2.6c0.9-0.7,2.2-0.9,3.8-0.9c1.5,0,2.7,0.3,3.6,0.9c0.899,0.6,1.5,1.4,1.5,2.3h5.1c-0.1-1.7-0.899-3.2-2.3-4.3
		c-1.4-1.2-3.2-1.7-5.4-2V11h-4.8v3.7c-2.6,0.3-4.5,1-6,2.3S17,19.8,17,21.7c0,1.7,0.8,3,2.3,4.1c1.5,1,3.9,1.9,7.1,2.4
		c0.2,0,0.6,0.1,0.9,0.1c2.601,0.3,4.3,1,5.101,2c0.199,0.2,0.5,0.601,0.6,0.9s0.2,0.8,0.2,1.2c0,1.3-0.601,2.199-1.601,3
		C30.4,36.1,29,36.6,27.2,36.6c-2,0-3.6-0.3-4.6-1c-1-0.699-1.6-1.699-1.7-3.1H16c0,2.1,0.8,3.7,2.5,5.1
		c1.6,1.301,3.9,2.101,6.7,2.301v3.8h0.3V43.6z"/>
	<path fill="#FFFFFF" d="M12.3,10.4C19.3,4.3,29,3,37.3,7l1.4-2.9C29.2-0.6,18.1,0.9,10.2,8C0.5,16.6-1.1,30.8,5.8,41.3l-5.1,4.5
		l11.7,1l0.3-11.7L8.2,39.2C2.4,30,3.9,17.9,12.3,10.4z"/>
	<path fill="#FFFFFF" d="M54.3,9.4l-11.7-1L42.4,20.1l4.5-4.1C49.3,19.9,50.6,24.5,50.3,29.2c-0.3,6-3,11.5-7.5,15.5
		c-6,5.3-14.5,7.1-22,4.5l-1,3c2.7,0.8,5.3,1.3,8,1.3c6.3,0,12.4-2.2,17.2-6.5c5.1-4.5,8.2-10.9,8.6-17.7
		c0.301-5.6-1.199-11-4.199-15.5L54.3,9.4z"/>
</g>
</svg>
