<?xml version="1.0" encoding="utf-8"?>
<!-- Generator: Adobe Illustrator 16.0.0, SVG Export Plug-In . SVG Version: 6.00 Build 0)  -->
<!DOCTYPE svg PUBLIC "-//W3C//DTD SVG 1.1//EN" "http://www.w3.org/Graphics/SVG/1.1/DTD/svg11.dtd">
<svg version="1.1" id="圖層_1" xmlns="http://www.w3.org/2000/svg" xmlns:xlink="http://www.w3.org/1999/xlink" x="0px" y="0px"
	 width="31px" height="57px" viewBox="0 0 31 57" enable-background="new 0 0 31 57" xml:space="preserve">
<g>
	<path fill="#FFFFFF" d="M5.582,28.487L29.336,4.371c0.725-0.724,0.725-1.929,0-2.653c-0.723-0.723-1.929-0.723-2.652,0L1.603,27.16
		C1.242,27.523,1,28.004,1,28.487s0.241,0.964,0.603,1.326l25.202,25.443c0.723,0.725,1.93,0.725,2.651,0
		c0.726-0.725,0.726-1.93,0-2.652L5.582,28.487z"/>
	<path fill="#FFFFFF" d="M28.131,56.799c-0.773,0-1.495-0.297-2.034-0.836L0.893,30.518C0.327,29.951,0,29.211,0,28.487
		c0-0.72,0.326-1.46,0.894-2.032L25.972,1.016c1.089-1.088,2.996-1.081,4.071-0.005c0.539,0.539,0.837,1.261,0.837,2.034
		c-0.001,0.772-0.298,1.495-0.837,2.033L6.987,28.485L30.167,51.9c0.534,0.531,0.832,1.254,0.833,2.025
		c0.001,0.773-0.297,1.498-0.837,2.039C29.626,56.502,28.904,56.799,28.131,56.799z M28.01,2.175c-0.238,0-0.458,0.089-0.619,0.25
		L2.315,27.862C2.12,28.059,2,28.297,2,28.487c0,0.191,0.119,0.428,0.31,0.619l25.206,25.447c0.314,0.316,0.912,0.318,1.232-0.002
		C28.911,54.387,29,54.166,29,53.928c0-0.236-0.089-0.455-0.249-0.615L4.177,28.489l24.446-24.82
		c0.168-0.167,0.256-0.387,0.257-0.625c0-0.238-0.089-0.458-0.251-0.619C28.468,2.264,28.248,2.175,28.01,2.175z"/>
</g>
</svg>
