<?xml version="1.0" encoding="utf-8"?>
<!-- Generator: Adobe Illustrator 16.0.0, SVG Export Plug-In . SVG Version: 6.00 Build 0)  -->
<!DOCTYPE svg PUBLIC "-//W3C//DTD SVG 1.1//EN" "http://www.w3.org/Graphics/SVG/1.1/DTD/svg11.dtd">
<svg version="1.1" id="圖層_1" xmlns="http://www.w3.org/2000/svg" xmlns:xlink="http://www.w3.org/1999/xlink" x="0px" y="0px"
	 width="26px" height="26px" viewBox="0 0 26 26" enable-background="new 0 0 26 26" xml:space="preserve">
<g>
	<g>
		<g>
			<g>
				<path fill="#466DEE" d="M13.283,6.58c3.365,0,6.104,2.737,6.104,6.104c0,3.368-2.739,6.106-6.104,6.106
					c-3.367,0-6.105-2.738-6.105-6.106C7.178,9.317,9.916,6.58,13.283,6.58 M13.283,4.581c-4.477,0-8.104,3.628-8.104,8.103
					c0,4.478,3.628,8.105,8.104,8.105c4.476,0,8.104-3.628,8.104-8.105C21.387,8.209,17.759,4.581,13.283,4.581L13.283,4.581z"/>
			</g>
		</g>
		<g>
			<path fill="#466DEE" d="M7.721,1.015L1.052,1.247L3.767,3.25C1.792,5.241,0.422,7.833,0,10.744h2.152
				C2.549,8.452,3.65,6.414,5.207,4.82l1.761,2.824L7.721,1.015z"/>
		</g>
		<g>
			<path fill="#466DEE" d="M18.279,24.985l6.669-0.234l-2.715-2.001c1.976-1.991,3.345-4.583,3.767-7.495h-2.152
				c-0.396,2.293-1.498,4.331-3.056,5.924l-1.76-2.824L18.279,24.985z"/>
		</g>
	</g>
</g>
</svg>
