<?xml version="1.0" encoding="utf-8"?>
<!-- Generator: Adobe Illustrator 22.0.1, SVG Export Plug-In . SVG Version: 6.00 Build 0)  -->
<svg version="1.1" id="圖層_1" xmlns="http://www.w3.org/2000/svg" xmlns:xlink="http://www.w3.org/1999/xlink" x="0px" y="0px"
	 viewBox="0 0 50 50" style="enable-background:new 0 0 50 50;" xml:space="preserve">
<style type="text/css">
	.st0{fill:#AFAFAF;}
	.st1{fill:#FFFFFF;}
</style>
<polygon class="st0" points="0,0 50,50 50,0 "/>
<rect x="32" y="25" class="st1" width="3.6" height="3.6"/>
<path class="st1" d="M41.3,12.6c-0.5,0.9-1.5,2.1-3.1,3.4c-1,0.9-1.7,1.6-2,2c-0.3,0.4-0.5,0.9-0.7,1.5s-0.2,1.5-0.3,2.7h-3
	c0-0.4,0-0.7,0-0.9c0-1.2,0.2-2.3,0.5-3.2c0.3-0.7,0.7-1.4,1.2-2c0.4-0.5,1.2-1.2,2.3-2.2c1.1-1,1.8-1.7,2.1-2.3
	c0.3-0.6,0.5-1.2,0.5-1.9c0-1.2-0.5-2.3-1.4-3.2c-1-0.9-2.1-1.4-3.5-1.4c-1.3,0-2.5,0.4-3.4,1.3c-0.9,0.8-1.5,2.1-1.8,3.9l-3.2-0.4
	c0.3-2.4,1.2-4.2,2.6-5.5c1.4-1.3,3.3-1.9,5.7-1.9c2.5,0,4.5,0.7,6,2c1.5,1.4,2.2,3,2.2,4.9C42.1,10.6,41.8,11.6,41.3,12.6z"/>
</svg>
