<?xml version="1.0" encoding="utf-8"?>
<!-- Generator: Adobe Illustrator 16.0.0, SVG Export Plug-In . SVG Version: 6.00 Build 0)  -->
<!DOCTYPE svg PUBLIC "-//W3C//DTD SVG 1.1//EN" "http://www.w3.org/Graphics/SVG/1.1/DTD/svg11.dtd">
<svg version="1.1" id="圖層_1" xmlns="http://www.w3.org/2000/svg" xmlns:xlink="http://www.w3.org/1999/xlink" x="0px" y="0px"
	 width="42px" height="42px" viewBox="0 0 42 42" enable-background="new 0 0 42 42" xml:space="preserve">
<g>
	<path fill="#E8AE31" d="M35.823,6.176C31.871,2.224,26.6,0,21,0C15.4,0,10.129,2.224,6.176,6.176C2.224,10.129,0,15.4,0,21
		c0,5.6,2.224,10.871,6.176,14.823C10.129,39.775,15.4,42,21,42c5.6,0,10.871-2.225,14.823-6.177S42,26.6,42,21
		C42,15.4,39.775,10.129,35.823,6.176z M21,39.693C10.706,39.693,2.306,31.294,2.306,21S10.706,2.306,21,2.306
		S39.693,10.706,39.693,21S31.294,39.693,21,39.693z"/>
	<path fill="#E8AE31" d="M25.282,19.848c-0.823-0.412-1.894-0.906-3.294-1.482c-1.235-0.494-2.059-0.824-2.471-1.153
		c-0.412-0.247-0.576-0.741-0.576-1.318c0-0.576,0.164-1.07,0.576-1.482s0.905-0.577,1.564-0.577c1.317,0,2.308,0.906,2.964,2.718
		l3.212-1.318c-0.739-2.636-2.471-4.118-5.104-4.447V8.647h-2.389v2.141c-1.729,0.247-3.047,0.906-3.788,1.977
		c-0.824,1.07-1.235,2.306-1.235,3.706c0,1.07,0.247,1.976,0.659,2.716c0.412,0.824,1.07,1.4,1.729,1.813
		c0.741,0.412,1.729,0.904,3.047,1.316c1.4,0.494,2.39,0.906,2.802,1.234c0.412,0.33,0.657,0.823,0.657,1.482
		c0,0.658-0.245,1.152-0.657,1.563c-0.412,0.412-1.072,0.659-1.979,0.659c-1.894,0-2.965-0.987-3.376-3.047L14,25.117
		c0.741,3.295,2.635,5.023,5.682,5.354v2.801h2.388v-2.801c1.813-0.164,3.213-0.822,4.199-1.895c0.988-1.07,1.482-2.471,1.482-4.117
		c0-1.07-0.247-1.977-0.74-2.801C26.684,21,26.023,20.341,25.282,19.848z"/>
</g>
</svg>
