<svg xmlns="http://www.w3.org/2000/svg" width="17" height="16.73" viewBox="0 0 17 16.73">
  <path id="icon_black" d="M316.673-4248.27a15.52,15.52,0,0,1-6.259-1.129,2.126,2.126,0,0,1-1.872,1.129h-1.416a2.135,2.135,0,0,1-2.126-2.139v-7.133a2.135,2.135,0,0,1,2.126-2.139h1.416a2.1,2.1,0,0,1,1.262.42c.745-.511,2.194-1.682,2.194-3.031,0-.879,0-2.71,1.7-2.71,1.14,0,2.367,1.054,2.367,3.366a6.481,6.481,0,0,1-.294,1.954h2.816a3.43,3.43,0,0,1,3.413,3.438,19.165,19.165,0,0,1-.864,5.08l.062.011a3.494,3.494,0,0,1-3.448,2.881Zm0-1.426h1.077a2.091,2.091,0,0,0,2.049-1.686c0-.021.009-.042.015-.065.085-.415.752-4.413.77-4.809a2,2,0,0,0-2-2h-3.9a.71.71,0,0,1-.625-.376.715.715,0,0,1,.038-.733,4.573,4.573,0,0,0,.544-2.271c0-1.423-.567-1.938-.949-1.938-.132.018-.282.22-.282,1.282,0,2-1.78,3.5-2.817,4.212a2.141,2.141,0,0,1,.068.537v6.688A13.677,13.677,0,0,0,316.673-4249.7Zm-10.257-7.846v7.133a.713.713,0,0,0,.71.713h1.416a.711.711,0,0,0,.708-.713v-7.133a.711.711,0,0,0-.708-.713h-1.416A.713.713,0,0,0,306.416-4257.542Z" transform="translate(-305 4265)" fill="#333"/>
</svg>
