<?xml version="1.0" encoding="utf-8"?>
<!-- Generator: Adobe Illustrator 16.0.0, SVG Export Plug-In . SVG Version: 6.00 Build 0)  -->
<!DOCTYPE svg PUBLIC "-//W3C//DTD SVG 1.1//EN" "http://www.w3.org/Graphics/SVG/1.1/DTD/svg11.dtd">
<svg version="1.1" id="圖層_1" xmlns="http://www.w3.org/2000/svg" xmlns:xlink="http://www.w3.org/1999/xlink" x="0px" y="0px"
	 width="23px" height="23px" viewBox="0 0 23 23" enable-background="new 0 0 23 23" xml:space="preserve">
<circle fill="#D59B41" cx="11.5" cy="11.5" r="11.5"/>
<g>
	<path fill="#FFFFFF" stroke="#FFFFFF" stroke-width="0.5" stroke-miterlimit="10" d="M17.963,9.243l-0.46,0.69
		c-0.966-0.46-1.748-0.874-2.394-1.242v0.69h-3.267v2.07h5.244v0.734h-5.244v4.141h5.567v0.736H5.682v-0.736h5.428v-4.139H5.957
		v-0.736h5.105v-2.07H7.98V8.599C7.06,9.151,6.279,9.565,5.587,9.841l-0.552-0.69c2.76-1.058,4.876-2.621,6.396-4.6l0.826,0.275
		l-0.184,0.23C13.594,6.897,15.525,8.278,17.963,9.243z M9.453,15.406l-0.736,0.277c-0.275-0.646-0.736-1.474-1.472-2.439
		l0.688-0.32C8.625,13.75,9.085,14.578,9.453,15.406z M14.975,8.599c-1.197-0.735-2.348-1.702-3.404-2.944
		c-0.875,1.012-2.024,1.979-3.496,2.944H14.975z M15.939,13.291c-0.601,1.059-1.104,1.887-1.656,2.482l-0.69-0.414
		c0.507-0.551,1.104-1.334,1.656-2.438L15.939,13.291z"/>
</g>
</svg>
